<?xml version="1.0" encoding="UTF-8" standalone="no"?>
<!DOCTYPE svg PUBLIC "-//W3C//DTD SVG 1.1//EN" "http://www.w3.org/Graphics/SVG/1.1/DTD/svg11.dtd">
<svg width="100%" height="100%" viewBox="0 0 133 63" version="1.1" xmlns="http://www.w3.org/2000/svg" xmlns:xlink="http://www.w3.org/1999/xlink" xml:space="preserve" xmlns:serif="http://www.serif.com/" style="fill-rule:evenodd;clip-rule:evenodd;stroke-linejoin:round;stroke-miterlimit:2;">
    <g transform="matrix(1,0,0,1,-164.917,-300.674)">
        <g transform="matrix(1.16915,0,0,1,-98.9798,-11.1458)">
            <g transform="matrix(61.583,0,0,72,222.829,373.662)">
                <path d="M0.047,-0L0.047,-0.727L0.558,-0.727L0.558,-0.568L0.244,-0.568L0.244,-0.443L0.527,-0.443L0.527,-0.284L0.244,-0.284L0.244,-0L0.047,-0Z" style="fill:white;fill-rule:nonzero;"/>
            </g>
            <g transform="matrix(61.583,0,0,72,258.782,373.662)">
                <rect x="0.05" y="-0.545" width="0.196" height="0.545" style="fill:white;fill-rule:nonzero;"/>
            </g>
            <g transform="matrix(61.583,0,0,72,276.977,373.662)">
                <path d="M0.311,0.01C0.253,0.01 0.203,-0.001 0.161,-0.024C0.119,-0.046 0.086,-0.078 0.064,-0.12C0.041,-0.162 0.03,-0.213 0.03,-0.271C0.03,-0.328 0.041,-0.377 0.064,-0.419C0.087,-0.461 0.119,-0.494 0.16,-0.517C0.202,-0.541 0.25,-0.553 0.307,-0.553C0.348,-0.553 0.385,-0.546 0.419,-0.533C0.452,-0.521 0.481,-0.502 0.504,-0.478C0.528,-0.454 0.546,-0.424 0.559,-0.39C0.572,-0.355 0.578,-0.316 0.578,-0.273L0.578,-0.227L0.091,-0.227L0.091,-0.335L0.398,-0.335C0.397,-0.351 0.394,-0.365 0.386,-0.377C0.378,-0.389 0.368,-0.398 0.355,-0.405C0.342,-0.411 0.327,-0.415 0.311,-0.415C0.295,-0.415 0.281,-0.411 0.267,-0.405C0.254,-0.398 0.244,-0.389 0.236,-0.377C0.228,-0.365 0.223,-0.351 0.223,-0.335L0.223,-0.219C0.223,-0.201 0.227,-0.186 0.234,-0.172C0.241,-0.158 0.252,-0.147 0.266,-0.14C0.279,-0.132 0.296,-0.128 0.315,-0.128C0.329,-0.128 0.341,-0.13 0.352,-0.134C0.364,-0.137 0.373,-0.143 0.381,-0.15C0.389,-0.157 0.395,-0.166 0.399,-0.176L0.578,-0.176C0.572,-0.138 0.557,-0.105 0.534,-0.078C0.511,-0.05 0.481,-0.028 0.443,-0.013C0.406,0.002 0.362,0.01 0.311,0.01Z" style="fill:white;fill-rule:nonzero;"/>
            </g>
            <g transform="matrix(61.583,0,0,72,314.416,373.662)">
                <path d="M0.376,-0.545L0.376,-0.403L0.011,-0.403L0.011,-0.545L0.376,-0.545ZM0.081,-0L0.081,-0.561C0.081,-0.606 0.089,-0.643 0.105,-0.673C0.121,-0.703 0.144,-0.725 0.173,-0.739C0.203,-0.754 0.237,-0.761 0.277,-0.761C0.302,-0.761 0.326,-0.759 0.35,-0.756C0.373,-0.752 0.391,-0.749 0.402,-0.746L0.374,-0.605C0.366,-0.607 0.358,-0.609 0.349,-0.61C0.339,-0.612 0.331,-0.612 0.324,-0.612C0.305,-0.612 0.293,-0.608 0.287,-0.6C0.28,-0.593 0.277,-0.582 0.277,-0.57L0.277,-0L0.081,-0Z" style="fill:white;fill-rule:nonzero;"/>
            </g>
        </g>
        <g transform="matrix(0.0493687,0,0,0.0493687,204.733,299.094)">
            <path d="M368,32L312,32C303.223,32 296,39.223 296,48L296,96L248,96L248,48C248,39.223 240.777,32 232,32L152,32C143.223,32 136,39.223 136,48L136,96L88.1,96L88.1,48C88.1,39.223 80.877,32 72.1,32L16,32C7.223,32 -0,39.223 0,48L0,224L64,256C64,304.33 62.46,351 50.79,416L333.21,416C321.54,351 320,303.72 320,256L384,224L384,48C384,39.223 376.777,32 368,32ZM224,320L160,320L160,256C160,238.445 174.445,224 192,224C209.555,224 224,238.445 224,256L224,320Z" style="fill:white;fill-rule:nonzero;"/>
        </g>
    </g>
</svg>
